# xmcd CD database file
#
# Track frame offsets:
#	150
#	17641
#	39751
#	71318
#	89136
#	105515
#	130679
#	153370
#	179042
#	203712
#	220004
#
# Disc length: 3224 seconds
#
# Revision: 0
# Processed by: cddbd v1.5.2PL0 Copyright (c) Steve Scherf et al.
# Submitted via: CDex 1.51
#
DISCID=8c0c960b
DTITLE=Anacaona - Como un milagro
DYEAR=1996
DGENRE=Salsa
TTITLE0=No te quedes sentado
TTITLE1=Dame amor
TTITLE2=Dulce locura
TTITLE3=Me encantas
TTITLE4=Como un milagro
TTITLE5=Bailando chachachá
TTITLE6=Para hacerme soñar
TTITLE7=El bombín de Barreto
TTITLE8=All that she wants
TTITLE9=La botánica
TTITLE10=Gracias a la música
EXTD=YEAR: 1996
EXTT0=
EXTT1=
EXTT2=
EXTT3=
EXTT4=
EXTT5=
EXTT6=
EXTT7=
EXTT8=
EXTT9=
EXTT10=
PLAYORDER=
